<svg xmlns="http://www.w3.org/2000/svg" viewBox="0 0 1671.66 1646.73"><defs><style>.cls-1{fill:#fff;}.cls-2,.cls-3,.cls-5{fill:#c80a12;}.cls-3{fill-rule:evenodd;}.cls-4{fill:none;stroke-width:6px;}.cls-4,.cls-5{stroke:#fff;stroke-miterlimit:10;}.cls-5{stroke-width:3px;}</style></defs><g id="图层_1" data-name="图层 1"><path class="cls-1" d="M632.93,1729.53c-200.29-107.52-275.5-357-168-557.33s357-275.5,557.33-168l-.93-.5c200.29,107.52,449.81,32.31,557.33-168s32.31-449.81-168-557.33l-.25.47c400.58,215,551,714.08,336,1114.66s-714.09,551-1114.67,336" transform="translate(-197.73 -180.82)"/><path class="cls-2" d="M632.68,1730c-200.29-107.52-275.5-357-168-557.34s357-275.49,557.33-168l-.93-.5c200.29,107.51,449.81,32.31,557.33-168s32.31-449.82-168-557.33c-400.58-215-899.63-64.62-1114.66,336s-64.62,899.63,336,1114.66" transform="translate(-197.73 -180.82)"/><circle class="cls-1" cx="1018.76" cy="460.5" r="141.26"/><circle class="cls-2" cx="629.41" cy="1185.81" r="141.26"/></g><g id="图层_2" data-name="图层 2"><path class="cls-3" d="M1734,997.65c-10.79-16.44-21.46-29.95-40.52-38-36.55-15.42-133.09-9.11-174.75,0-24.43,5.34-49.6,3.73-72.18,8.86-9.63,2.19-21.73-.8-29.13,3.8h-3.8L1406,943.19c36.15-12.05,109-7.19,119-43.05,1.89-6.79-1.13-14.92-2.53-19-8.81-25.63-28.58-26.43-57-32.92-6.49-1.48-19.79-4.73-27.85-2.53-10.17,2.77-31.39,20.89-36.73,29.12-15.61.46-30.71,4.23-44.32,7.6-24.18,6-49.15,7.43-72.18,12.66-16.22,3.69-35-10.59-48.12-2.53l-3.8,1.27c-.64,2.69-1.13,4.58-2.53,6.33,1.75,25.3,33.47,41.32,54.45,48.12l24.06,3.8c8.66-.17,27-2.58,32.92,1.26,4.73,6.52,3.12,18.64,7.6,25.33-4,6.76-33,6.37-43,8.87-23.52,5.82-49,6.42-73.45,12.66-19.32,4.93-43.1,12.64-64.58,12.66-1-11.56-8.75-27.66-16.46-32.92-2.78-1.89-6.4-1.86-8.87-3.8-3.21.13-4.69.15-6.33,1.26-8.74,3.12-20.19,42.9-25.33,53.19-8.15,16.34-15.52,35.83-25.32,51.92-6.53,10.71-14.87,22.77-19,35.46-10.07,30.93,8.44,69.16,26.6,81,16.91,11.07,37.81,1.31,48.12-8.86,20.87-20.6,43.62-75.34,44.32-115.24,10.68-5.36,22.55-14.3,36.72-15.19.28,17.74,13.24,32,25.33,38-2.09,12.38-11.07,26.12-17.73,35.45-3.49,4.88-11.7,6.42-16.46,10.13-10.56,8.23-17.43,37.16-11.4,57,2,6.43,6.79,11.43,10.13,16.46,40.1,8.89,73.75-40.68,98.77-59.52,7.11-5.35,12.33-14.47,21.53-17.73,1.3-1,.31-.46,2.53-1.26,3.2,6.74,8,13.85,10.13,21.53q.65,8.85,1.27,17.72c3.85,15,13.38,23.32,30.39,25.33-13.49,11.07-64,22.87-84.84,27.86-14.24,3.41-29.3-1.49-39.26,3.8a70.81,70.81,0,0,0-1.26,15.19c4.14,4.08,6.68,10.5,11.39,13.93,5.49,4,12.84,5.58,17.73,10.13,2.19.82,1.24.25,2.53,1.27L1235,1302.83h-2.53c3.84,2.12,12.25.27,17.73-1.27,13.55-3.8,28.59-5.89,43-10.13,37.13-10.87,76.94-18.75,112.71-30.39,31.51-10.26,50.78-7.29,70.91-30.39.4-26.52-26.21-46.19-53.18-40.52-7.8,1.64-15-.05-20.27,3.8h-5.06c4.27-12,12.84-22.16,16.46-36.73,2.62-10.53-.95-36.33,3.8-44.32v-35.46c3.64-5.2,34.54-11.66,41.79-16.46H1463q-4.42,25.32-8.86,50.65c1.76,13.73,8.77,26.75,13.93,38-13.83,6.91-28.75,20.56-45.59,22.8,5.39,3.35,28.75,3,36.72,1.26,12.65-2.7,27.83.46,41.79-2.53,9.4-2,23-3.24,32.93-3.8,14.62-.81,36.48,3.08,45.58-3.8,9.54-3.26,13.54-18.83,8.87-31.65-4-10.94-14.79-19.64-25.33-24.06l-24.06-5.07h-17.73c1.79-5.46,5.19-9,7.6-13.93,20.31.07,38.83,2.54,60.78,2.53h19l43.05-7.59c13.28-4.26,28.09-11.32,40.53-15.2h43c5.06-1.49,8.57-6.25,12.66-8.86C1754.44,1031.44,1746.61,1016.89,1734,997.65Zm-382.42,81c-2.14,4.09-12.37,6.31-16.47,8.86-8.89,5.54-18.82,12.24-27.86,17.73-6.67,4.06-14.7,5.12-20.26,10.13h-2.53c4-12.08,16.22-23.59,24.06-32.92.71-25.26-16.32-35.92-38-38v-1.27c25.35-6.19,52.57-13.77,81-16.46Zm248.19-64.58a327,327,0,0,1-44.32,22.79c-9.11,3.77-20.07,3.69-27.86,8.87-12.59-1.25-14.73-15.68-26.59-19-16-4.48-45,5.42-55.72,8.87-8.55,2.76-17.72,2.71-24.06,7.59h-3.8c-.79-4.37-.19-16.54-2.53-20.26.51-2.6.32-2.44,1.27-3.8,7.3-4.88,19.5-2.7,29.12-5.06,16.92-4.16,37.34-6.08,54.45-10.13,9.93-2.35,22.54.86,30.4-3.8,17-.13,38.43-1.86,53.18,1.26,7.19,1.53,17.59-2,22.8,1.27h11.39C1614.27,1009.43,1606,1010.3,1599.73,1014.11Zm81,468.54c-15.67-7-40.45-22.67-64.58-12.67-8.5,3.53-18,9.81-25.33,15.2-2.79,2-5.74,7.4-8.86,8.86l-119,12.67c1-11,5.32-27,8.87-38,31.05-6.87,61.85-15.35,88.64-26.59,8.08-3.4,16-4.22,22.79-8.87,6.22-4.28,7.88-11.93,12.67-17.73.25-33.59-28-55.42-51.92-65.85-9.14-4-34-7-43.06,0-13.36,4.82-1.65,31.92,5.07,36.73-4.19,11.58-21.8,16.1-29.13,25.32-5.29-3.52-4-21.52-6.33-27.86-6.22-16.79-18-27-26.59-40.52h-1.27v-1.26l93.71-12.67c15.95-3.66,31.2-3,39.25-13.93,5.71-7.75,4.58-17.64,3.8-29.12-2.43-2.58-2.89-5.87-5.06-8.87-9.85-13.57-28-17.94-45.59-24.06-5.66-2-18.71-6.84-27.86-3.8-16.81,5.59-32.09,35.61-46.85,40.53-17.43,5.8-34.23,5.08-51.92,10.13-45.73,13-96.1,19.91-141.83,32.92-19.32,5.5-38.94,7.52-57,12.66-6.57,1.88-12.77.68-17.73,3.8-8.16-.82-18.67-7.38-22.8-12.66-7.57.33-8.29,2.24-12.66,5.07-8.41,34.13-.16,45.14,22.79,59.51,6.79,4.26,13.52,9.46,22.8,11.4-6,11.62-16.41,22.11-20.26,35.46-1.76,6.07.31,17.37,1.26,21.52,7.18,31.4,18.66,55.53,54.45,53.19,6.42-6.52,14-10.93,19-19q4.43-10.14,8.86-20.27c6.37-7,17.24-9.82,22.8-17.72h2.53q-.63,19.62-1.27,39.25a92.81,92.81,0,0,1,2.54,19,247.27,247.27,0,0,0-49.39,6.33c-26.31,6.08-52.94,5.57-77.25,11.39-15.07,3.62-41.83,1.79-53.18,8.87-9.53-2.11-26.48-21.83-38-11.4-7.58,2.87-8.13,11.91-7.6,22.8,21.44,20.51,42.33,39.52,74.71,49.38,31.18,9.49,80-9.15,106.38-16.46l103.83-20.26,26.6-2.53c16.88-4,48.2-8.42,65.85-5.07,26.84,5.1,60.57-3,86.11,2.53l51.91,1.27c26.35,5.93,62.62,3.83,89.91,6.33,19.76,1.81,46.55,4.31,57-6.33,7.76-7.9,13.29-35.48,6.33-49.39C1720,1504.07,1699.45,1491,1680.78,1482.65Zm-387.5-62.05c-1.69,11.39-44.34,19.31-54.45,26.59-5.78-1.49-18.6-30.08-19-38,17.06-2.58,33.38-11.67,48.12-17.73,10.36-4.25,23.16-5.06,31.66-11.39h2.53C1300.09,1390,1298.14,1413.14,1293.28,1420.6Zm110.17,91.17c-10.92,2.11-48.72,2.06-55.71,6.33a20.11,20.11,0,0,1-6.34-1.26c-.16-6-1.21-16.49,1.27-20.26,9.22-6,27.34-.62,36.72-6.33,13,.83,15.56,14.38,24.06,20.26Zm6.34-60.78c-1.68,3.13-20.11,9.1-24.06,12.66-7.23-1-17.77-3.69-22.8-7.6h-1.26a27,27,0,0,0,8.86,12.67c-.82,2.18-.25,1.24-1.27,2.53-5.68,4.7-19.21,8.09-27.86,8.86,0-12,.38-42,5.07-49.38.35-11.42,31.89-38.8,40.52-44.32v-1.27c-8.17,1.28-28.94,9.25-34.19,13.93h-2.53q.63-17.73,1.27-35.46c7.89-1.06,40.36-9.08,45.58-12.66h2.54q1.26,8.23,2.53,16.46c1.1,2.91,5.37,6.08,6.33,8.87q.63,24,1.27,48.12ZM1230,1304.1c1.3,1,.31.46,2.53,1.26v-1.26Z" transform="translate(-197.73 -180.82)"/><path class="cls-4" d="M1734,997.65c-10.79-16.44-21.46-29.95-40.52-38-36.55-15.42-133.09-9.11-174.75,0-24.43,5.34-49.6,3.73-72.18,8.86-9.63,2.19-21.73-.8-29.13,3.8h-3.8L1406,943.19c36.15-12.05,109-7.19,119-43.05,1.89-6.79-1.13-14.92-2.53-19-8.81-25.63-28.58-26.43-57-32.92-6.49-1.48-19.79-4.73-27.85-2.53-10.17,2.77-31.39,20.89-36.73,29.12-15.61.46-30.71,4.23-44.32,7.6-24.18,6-49.15,7.43-72.18,12.66-16.22,3.69-35-10.59-48.12-2.53l-3.8,1.27c-.64,2.69-1.13,4.58-2.53,6.33,1.75,25.3,33.47,41.32,54.45,48.12l24.06,3.8c8.66-.17,27-2.58,32.92,1.26,4.73,6.52,3.12,18.64,7.6,25.33-4,6.76-33,6.37-43,8.87-23.52,5.82-49,6.42-73.45,12.66-19.32,4.93-43.1,12.64-64.58,12.66-1-11.56-8.75-27.66-16.46-32.92-2.78-1.89-6.4-1.86-8.87-3.8-3.21.13-4.69.15-6.33,1.26-8.74,3.12-20.19,42.9-25.33,53.19-8.15,16.34-15.52,35.83-25.32,51.92-6.53,10.71-14.87,22.77-19,35.46-10.07,30.93,8.44,69.16,26.6,81,16.91,11.07,37.81,1.31,48.12-8.86,20.87-20.6,43.62-75.34,44.32-115.24,10.68-5.36,22.55-14.3,36.72-15.19.28,17.74,13.24,32,25.33,38-2.09,12.38-11.07,26.12-17.73,35.45-3.49,4.88-11.7,6.42-16.46,10.13-10.56,8.23-17.43,37.16-11.4,57,2,6.43,6.79,11.43,10.13,16.46,40.1,8.89,73.75-40.68,98.77-59.52,7.11-5.35,12.33-14.47,21.53-17.73,1.3-1,.31-.46,2.53-1.26,3.2,6.74,8,13.85,10.13,21.53q.65,8.85,1.27,17.72c3.85,15,13.38,23.32,30.39,25.33-13.49,11.07-64,22.87-84.84,27.86-14.24,3.41-29.3-1.49-39.26,3.8a70.81,70.81,0,0,0-1.26,15.19c4.14,4.08,6.68,10.5,11.39,13.93,5.49,4,12.84,5.58,17.73,10.13,2.19.82,1.24.25,2.53,1.27L1235,1302.83h-2.53c3.84,2.12,12.25.27,17.73-1.27,13.55-3.8,28.59-5.89,43-10.13,37.13-10.87,76.94-18.75,112.71-30.39,31.51-10.26,50.78-7.29,70.91-30.39.4-26.52-26.21-46.19-53.18-40.52-7.8,1.64-15-.05-20.27,3.8h-5.06c4.27-12,12.84-22.16,16.46-36.73,2.62-10.53-.95-36.33,3.8-44.32v-35.46c3.64-5.2,34.54-11.66,41.79-16.46H1463q-4.42,25.32-8.86,50.65c1.76,13.73,8.77,26.75,13.93,38-13.83,6.91-28.75,20.56-45.59,22.8,5.39,3.35,28.75,3,36.72,1.26,12.65-2.7,27.83.46,41.79-2.53,9.4-2,23-3.24,32.93-3.8,14.62-.81,36.48,3.08,45.58-3.8,9.54-3.26,13.54-18.83,8.87-31.65-4-10.94-14.79-19.64-25.33-24.06l-24.06-5.07h-17.73c1.79-5.46,5.19-9,7.6-13.93,20.31.07,38.83,2.54,60.78,2.53h19l43.05-7.59c13.28-4.26,28.09-11.32,40.53-15.2h43c5.06-1.49,8.57-6.25,12.66-8.86C1754.44,1031.44,1746.61,1016.89,1734,997.65Zm-382.42,81c-2.14,4.09-12.37,6.31-16.47,8.86-8.89,5.54-18.82,12.24-27.86,17.73-6.67,4.06-14.7,5.12-20.26,10.13h-2.53c4-12.08,16.22-23.59,24.06-32.92.71-25.26-16.32-35.92-38-38v-1.27c25.35-6.19,52.57-13.77,81-16.46Zm248.19-64.58a327,327,0,0,1-44.32,22.79c-9.11,3.77-20.07,3.69-27.86,8.87-12.59-1.25-14.73-15.68-26.59-19-16-4.48-45,5.42-55.72,8.87-8.55,2.76-17.72,2.71-24.06,7.59h-3.8c-.79-4.37-.19-16.54-2.53-20.26.51-2.6.32-2.44,1.27-3.8,7.3-4.88,19.5-2.7,29.12-5.06,16.92-4.16,37.34-6.08,54.45-10.13,9.93-2.35,22.54.86,30.4-3.8,17-.13,38.43-1.86,53.18,1.26,7.19,1.53,17.59-2,22.8,1.27h11.39C1614.27,1009.43,1606,1010.3,1599.73,1014.11Zm81,468.54c-15.67-7-40.45-22.67-64.58-12.67-8.5,3.53-18,9.81-25.33,15.2-2.79,2-5.74,7.4-8.86,8.86l-119,12.67c1-11,5.32-27,8.87-38,31.05-6.87,61.85-15.35,88.64-26.59,8.08-3.4,16-4.22,22.79-8.87,6.22-4.28,7.88-11.93,12.67-17.73.25-33.59-28-55.42-51.92-65.85-9.14-4-34-7-43.06,0-13.36,4.82-1.65,31.92,5.07,36.73-4.19,11.58-21.8,16.1-29.13,25.32-5.29-3.52-4-21.52-6.33-27.86-6.22-16.79-18-27-26.59-40.52h-1.27v-1.26l93.71-12.67c15.95-3.66,31.2-3,39.25-13.93,5.71-7.75,4.58-17.64,3.8-29.12-2.43-2.58-2.89-5.87-5.06-8.87-9.85-13.57-28-17.94-45.59-24.06-5.66-2-18.71-6.84-27.86-3.8-16.81,5.59-32.09,35.61-46.85,40.53-17.43,5.8-34.23,5.08-51.92,10.13-45.73,13-96.1,19.91-141.83,32.92-19.32,5.5-38.94,7.52-57,12.66-6.57,1.88-12.77.68-17.73,3.8-8.16-.82-18.67-7.38-22.8-12.66-7.57.33-8.29,2.24-12.66,5.07-8.41,34.13-.16,45.14,22.79,59.51,6.79,4.26,13.52,9.46,22.8,11.4-6,11.62-16.41,22.11-20.26,35.46-1.76,6.07.31,17.37,1.26,21.52,7.18,31.4,18.66,55.53,54.45,53.19,6.42-6.52,14-10.93,19-19q4.43-10.14,8.86-20.27c6.37-7,17.24-9.82,22.8-17.72h2.53q-.63,19.62-1.27,39.25a92.81,92.81,0,0,1,2.54,19,247.27,247.27,0,0,0-49.39,6.33c-26.31,6.08-52.94,5.57-77.25,11.39-15.07,3.62-41.83,1.79-53.18,8.87-9.53-2.11-26.48-21.83-38-11.4-7.58,2.87-8.13,11.91-7.6,22.8,21.44,20.51,42.33,39.52,74.71,49.38,31.18,9.49,80-9.15,106.38-16.46l103.83-20.26,26.6-2.53c16.88-4,48.2-8.42,65.85-5.07,26.84,5.1,60.57-3,86.11,2.53l51.91,1.27c26.35,5.93,62.62,3.83,89.91,6.33,19.76,1.81,46.55,4.31,57-6.33,7.76-7.9,13.29-35.48,6.33-49.39C1720,1504.07,1699.45,1491,1680.78,1482.65Zm-387.5-62.05c-1.69,11.39-44.34,19.31-54.45,26.59-5.78-1.49-18.6-30.08-19-38,17.06-2.58,33.38-11.67,48.12-17.73,10.36-4.25,23.16-5.06,31.66-11.39h2.53C1300.09,1390,1298.14,1413.14,1293.28,1420.6Zm110.17,91.17c-10.92,2.11-48.72,2.06-55.71,6.33a20.11,20.11,0,0,1-6.34-1.26c-.16-6-1.21-16.49,1.27-20.26,9.22-6,27.34-.62,36.72-6.33,13,.83,15.56,14.38,24.06,20.26Zm6.34-60.78c-1.68,3.13-20.11,9.1-24.06,12.66-7.23-1-17.77-3.69-22.8-7.6h-1.26a27,27,0,0,0,8.86,12.67c-.82,2.18-.25,1.24-1.27,2.53-5.68,4.7-19.21,8.09-27.86,8.86,0-12,.38-42,5.07-49.38.35-11.42,31.89-38.8,40.52-44.32v-1.27c-8.17,1.28-28.94,9.25-34.19,13.93h-2.53q.63-17.73,1.27-35.46c7.89-1.06,40.36-9.08,45.58-12.66h2.54q1.26,8.23,2.53,16.46c1.1,2.91,5.37,6.08,6.33,8.87q.63,24,1.27,48.12ZM1230,1304.1c1.3,1,.31.46,2.53,1.26v-1.26Z" transform="translate(-197.73 -180.82)"/><path class="cls-5" d="M1351.9,1743.79l-44.16-21.6q-16.8,22.8-19,30.48a15.61,15.61,0,0,1-6.36,9q-4.92,3.48-8.28,3.48-4.56,0-4.56-4.56,0-2.64,7.2-15a305.66,305.66,0,0,1,19.44-28.68,49.24,49.24,0,0,1-7.92-3.36,3.42,3.42,0,0,1-1.92-2.88q0-4.08,4.56-10.8t8.52-8q4-1.32,18.36-3,12.24-17.28,37-49.68-28.8,4.56-38.28,6.72T1307,1650q0,1.68,4.8,1.68,12.48,0,12.48,2.16,0,.72-1.68,1t-19.44,1l-18,.72a5.55,5.55,0,0,1-4.08-1.68,5.29,5.29,0,0,1-1.68-3.84q0-6,8.28-18t34.44-18.36a221.75,221.75,0,0,1,52.56-6.36q28.8,0,47.88,7.92t19.08,26.4a42,42,0,0,1-5.28,19.8,50.87,50.87,0,0,1-15.6,17.4q-10.32,7.44-39.48,13.32a426.7,426.7,0,0,1-63.24,7.56q34.8,13,55.32,22t27.84,13.56q7.32,4.56,8.16,7.92a50.82,50.82,0,0,1,.84,11,62,62,0,0,1-.84,11q-.84,4.56-4,4.56-2.88,0-12-5.52T1351.9,1743.79ZM1362.22,1638a11.4,11.4,0,0,1,.48,3.12q0,6.24-8.16,17.88t-20.88,27.24q55.92-10.56,74.76-19.32t18.84-17.16q0-6.48-12-9.84t-30-3.36A185.58,185.58,0,0,0,1362.22,1638Z" transform="translate(-197.73 -180.82)"/><path class="cls-5" d="M1463,1722v2.88q0,7,3.24,10.8a11.14,11.14,0,0,0,9,3.84q8.88,0,17.88-5.64a181.5,181.5,0,0,0,21.24-16.2v7.2q-27.36,32.88-48.48,32.88a19.15,19.15,0,0,1-16.56-8.52q-6-8.52-6-22.92,0-12.24,9-25.68a79.21,79.21,0,0,1,23.4-22.68q14.4-9.24,25-9.24,5.76,0,9.12,2.64a8.92,8.92,0,0,1,3.36,7.44Q1513.18,1701.31,1463,1722Zm1.2-7.68q15.84-6.48,24.24-16t8.4-14a2.33,2.33,0,0,0-2.64-2.64q-5.28,0-16.44,10T1464.22,1714.27Z" transform="translate(-197.73 -180.82)"/><path class="cls-5" d="M1598.86,1717.63v8.64q-22.81,29.52-38.64,29.52-8.88,0-13.56-10.08a47.52,47.52,0,0,1-4.68-20.16q0-16.32,13.56-34.08t24.84-17.76q7.2,0,7.2,5.52,0,1.92-3.6,9.6t-14.4,18.48q-7.92,7.92-9.6,10.56a11.83,11.83,0,0,0-1.68,6.48,9.77,9.77,0,0,0,3.12,7.32,11.26,11.26,0,0,0,8.16,3q5.52,0,12.36-4.2A140.93,140.93,0,0,0,1598.86,1717.63Zm-8.16-52.56a7.56,7.56,0,0,1-5.76-2.28,7.89,7.89,0,0,1-2.16-5.64q0-5.28,5-11.4t10.08-6.12a7.81,7.81,0,0,1,8.16,8.16q0,5.28-4.68,11.28C1598.26,1663.07,1594.69,1665.07,1590.7,1665.07Z" transform="translate(-197.73 -180.82)"/><path class="cls-5" d="M1670.85,1733.71q28.32-25,45-40.56t19.08-15.6q2.16,0,4.92,5.28a20.72,20.72,0,0,1,2.76,9.36q0,2.64-7.68,10.56-10.32,11.76-12.48,15.36a14.68,14.68,0,0,0-2.16,7.68,7.56,7.56,0,0,0,1.92,5.4,6.9,6.9,0,0,0,5.28,2q3.36,0,9.36-4.56t13.68-11.52v8.4q-20.64,19.2-29.52,24.84t-13.68,5.64a7.53,7.53,0,0,1-6.12-2.76,11.13,11.13,0,0,1-2.28-7.32,27.54,27.54,0,0,1,1-6.84q1-3.72,7.44-15.48t13.68-23a337.91,337.91,0,0,0-45.6,45.12q-5.76,7.2-12.24,7.2-6,0-6-8.64,0-3.36,3.6-10.8t13.92-25a6,6,0,0,0,.72-2.64,2.33,2.33,0,0,0-2.64-2.64q-1.44,0-4.68,2.64t-13.92,14.4a233.15,233.15,0,0,0-16.2,19.44q-4.8,7-6.84,9.36a5.83,5.83,0,0,1-4.44,2.4q-4.08,0-7.68-7.44a39.82,39.82,0,0,1-3.6-17.52,32.52,32.52,0,0,1,2.4-12.84q2.4-5.64,9.12-15.48t11.76-14.16q5-4.32,9.12-4.32a17.29,17.29,0,0,1,5.88,1.08q3,1.08,3,3.72,0,5.76-15.12,19.92a42.65,42.65,0,0,0-6.48,8q-3.36,5.16-3.36,8,0,2.64,2.4,2.64,1.92,0,10.08-8.16,23.52-24,33.6-32.16t16.32-8.16a7.27,7.27,0,0,1,5.52,2.28,8.53,8.53,0,0,1,2.16,6.12Q1701.81,1693.39,1670.85,1733.71Z" transform="translate(-197.73 -180.82)"/><path class="cls-5" d="M1829.73,1709.71q-17.52,23.52-26.52,32.52t-13.8,9q-6.48,0-11.28-7.68t-4.8-19.68a33.78,33.78,0,0,1,3.36-14.88q3.36-7,13.92-19.68t13.44-14a20.13,20.13,0,0,1,8.16-1.32,24.24,24.24,0,0,1,7.32,1q3,1,3,2.4,0,2.64-7.32,12.6t-25.08,23.64a30.9,30.9,0,0,0-2.16,10.08q0,5.52,3.6,5.52a6.69,6.69,0,0,0,2.88-.84q1.68-.84,12.48-10.2l14.88-13q4.08-3.36,10.32-11.52,6.72-8.64,13.68-16.08t9.48-9a9.33,9.33,0,0,1,4.92-1.56q4.56,0,4.56,7.44a18.46,18.46,0,0,1-2.64,9.36,14.71,14.71,0,0,0-1.2,1.92q-2.64,4.32-4.56,7-9.6,13.2-14.16,21t-4.56,12.84q0,6,4.8,6,3.84,0,9.12-3t16.32-12.12v7.92q-17.28,16.56-26,23.28t-15.24,6.72q-9.36,0-9.36-11.76Q1817.25,1735.87,1829.73,1709.71Z" transform="translate(-197.73 -180.82)"/></g></svg>